PathFileType	4	(X/Y/Z)	./resultDataOpenSim/trcMotMarkerGrf/sub10/qtm-14-08.trc
DataRate	CameraRate	NumFrames	NumMarkers	Units	OrigDataRate	OrigDataStartFrame	OrigNumFrames
250.000000	250.000000	6	24	m	250.000000	64	507
Frame#	Time	L.Toe.Tip			R.Toe.Tip			L.Ankle.Lat			R.Ankle.Lat			L.Ankle.Med			R.Ankle.Med			L.Heel			R.Heel			L.Knee.Lat			R.Knee.Lat			L.Knee.Med			R.Knee.Med			L.Thigh.Upper			R.Thigh.Upper			L.ASIS			R.ASIS			V.Sacral			L.Acromium			R.Acromium			C7			L.Elbow			R.Elbow			L.Wrist.Lat			R.Wrist.Lat
		X1	Y1	Z1	X2	Y2	Z2	X3	Y3	Z3	X4	Y4	Z4	X5	Y5	Z5	X6	Y6	Z6	X7	Y7	Z7	X8	Y8	Z8	X9	Y9	Z9	X10	Y10	Z10	X11	Y11	Z11	X12	Y12	Z12	X13	Y13	Z13	X14	Y14	Z14	X15	Y15	Z15	X16	Y16	Z16	X17	Y17	Z17	X18	Y18	Z18	X19	Y19	Z19	X20	Y20	Z20	X21	Y21	Z21	X22	Y22	Z22	X23	Y23	Z23	X24	Y24	Z24

64	0.252	-1.4231012	0.058883895	-0.053693674	-0.66698408	0.040310164	0.040287093	-1.4163341	0.19728457	-0.093806711	-0.80242417	0.051750818	0.088554153	-1.3837093	0.19036206	-0.017172333	-0.7951932	0.082389396	0.0043536843	-1.4499059	0.24788975	-0.0399913	-0.85818822	0.029022498	0.043735487	-1.1066093	0.41328536	-0.13972346	-0.81058726	0.45094354	0.13222117	-1.0803528	0.36888791	-0.028552264	-0.82858361	0.45967683	0.0055584522	-1.017704	0.7811765	-0.17042906	-0.91013538	0.85983379	0.19780846	-0.93823296	0.89143535	-0.12650916	-0.87079801	0.93322419	0.1018497	-1.0989188	0.93432546	0.038066296	-0.96780986	1.386352	-0.14627081	-0.97092931	1.3756201	0.17978552	-1.0528404	1.4132855	0.01624733	-1.0492285	1.0361256	-0.1816654	-1.113254	1.0638013	0.21273144	-0.81781897	0.93612141	-0.18311725	-1.0686609	0.83700041	0.29244097
65	0.256	-1.4165883	0.061454147	-0.055538618	-0.6669085	0.040219025	0.040162985	-1.4065848	0.19977012	-0.094638549	-0.8023223	0.051728958	0.088535684	-1.3736692	0.19225425	-0.017977357	-0.79505185	0.082385713	0.0042906613	-1.4387827	0.25110622	-0.041080046	-0.85819559	0.0290081	0.043750276	-1.0957635	0.41226463	-0.14039814	-0.80766313	0.45100493	0.13237546	-1.0690842	0.36804672	-0.029072215	-0.82602168	0.45979895	0.0057482596	-1.0107316	0.78083548	-0.17001487	-0.90499762	0.86075813	0.19829504	-0.93215638	0.89164341	-0.12596009	-0.86528011	0.93390889	0.10232801	-1.0932195	0.93449874	0.038108882	-0.96234613	1.3869243	-0.14605912	-0.96531424	1.3759017	0.18008098	-1.0474841	1.4138148	0.016640999	-1.0440337	1.0368773	-0.18176537	-1.1068716	1.063373	0.21232465	-0.81341078	0.93557637	-0.18346129	-1.0606201	0.83665431	0.29249168
66	0.26	-1.4091567	0.064320809	-0.05748508	-0.66682413	0.04013443	0.040071774	-1.3966541	0.20215977	-0.095430223	-0.80222063	0.051709431	0.088527039	-1.3634971	0.19414814	-0.018756804	-0.7948766	0.082392058	0.0042366667	-1.4277639	0.25410954	-0.042193971	-0.85819762	0.028996597	0.043759315	-1.0847824	0.41132745	-0.14101542	-0.80488642	0.45109579	0.13258001	-1.0577086	0.36751527	-0.02955582	-0.82361915	0.45992513	0.005951434	-1.0038315	0.7805684	-0.16959793	-0.89993164	0.86156479	0.19875772	-0.92617817	0.89190158	-0.12547337	-0.85980569	0.93455554	0.10283055	-1.087449	0.93458169	0.038193236	-0.95689338	1.387502	-0.14589363	-0.95964458	1.3761913	0.18033058	-1.0421114	1.4144042	0.017039044	-1.0388145	1.0376436	-0.18189149	-1.1002972	1.062959	0.21230278	-0.80900069	0.93498239	-0.18383484	-1.0524676	0.83629964	0.29250937
67	0.264	-1.4010388	0.06725631	-0.059132149	-0.66673988	0.040060173	0.039985575	-1.3865977	0.20449573	-0.09616172	-0.80211656	0.051689589	0.088529023	-1.353232	0.19606949	-0.01951948	-0.79468142	0.082406868	0.0041869287	-1.4168732	0.25690332	-0.043183142	-0.85820185	0.028986737	0.043764366	-1.073601	0.41053331	-0.141617	-0.80229896	0.45121262	0.13282833	-1.0463211	0.36725892	-0.029979858	-0.82133119	0.46005209	0.006158532	-0.99699944	0.78036601	-0.16919511	-0.89495273	0.86225762	0.19919532	-0.92034918	0.89221576	-0.12507172	-0.85442426	0.93515882	0.10332054	-1.0818764	0.9346571	0.038260653	-0.95147933	1.3880919	-0.14576872	-0.9539119	1.3764923	0.18052989	-1.0367332	1.4150416	0.017428917	-1.0335631	1.0384381	-0.18201907	-1.0933229	1.0625673	0.21298647	-0.80454749	0.93434012	-0.18421459	-1.0442513	0.8359464	0.29249202
68	0.268	-1.3923207	0.070048981	-0.060353099	-0.66666469	0.039997198	0.039883383	-1.3764368	0.20679084	-0.096822537	-0.8020172	0.051670845	0.088538787	-1.3428776	0.19802926	-0.020261175	-0.79448174	0.082425757	0.0041351789	-1.406085	0.25947448	-0.04386434	-0.85821385	0.028974554	0.043766511	-1.062236	0.40991133	-0.14220508	-0.79990545	0.45135826	0.13310372	-1.0349733	0.36722951	-0.030323469	-0.81912129	0.46018412	0.0063630836	-0.99023664	0.78022879	-0.1688287	-0.89006003	0.8628544	0.19961385	-0.91470638	0.89259237	-0.12477636	-0.84919799	0.93572187	0.10373952	-1.0766654	0.93474978	0.038232549	-0.9461096	1.3886992	-0.1456663	-0.94814765	1.3768069	0.18069211	-1.0313633	1.4157178	0.017799845	-1.0282713	1.0392609	-0.18212357	-1.0857803	1.0621862	0.21457769	-0.80006822	0.9336524	-0.18459316	-1.0360118	0.8356072	0.292443
69	0.272	-1.3829408	0.072591108	-0.061243592	-0.66660261	0.039945315	0.039770226	-1.3661706	0.20901692	-0.097423352	-0.80194464	0.051660522	0.08854776	-1.3324982	0.20000916	-0.020957269	-0.79428612	0.082442212	0.0040765912	-1.3953917	0.26180511	-0.044131284	-0.85823531	0.028957845	0.043764959	-1.0507867	0.40944062	-0.14273687	-0.79769024	0.45154668	0.13341069	-1.0236804	0.36737897	-0.030587356	-0.81696035	0.46033015	0.006557641	-0.98355896	0.78015797	-0.16850133	-0.8852365	0.86337485	0.20001744	-0.90920048	0.893031	-0.1245723	-0.84413163	0.93625929	0.10406288	-1.0718622	0.93484105	0.03801386	-0.94077145	1.3893283	-0.14556419	-0.94240836	1.3771411	0.18084228	-1.0260136	1.4164236	0.018149336	-1.0229528	1.0400981	-0.18221187	-1.0777204	1.0617979	0.21696779	-0.79559102	0.93292288	-0.184961	-1.0277308	0.83528994	0.29235851
